<?xml version="1.0" encoding="utf-8"?>
<!-- Generator: Adobe Illustrator 16.0.0, SVG Export Plug-In . SVG Version: 6.00 Build 0)  -->
<!DOCTYPE svg PUBLIC "-//W3C//DTD SVG 1.1//EN" "http://www.w3.org/Graphics/SVG/1.1/DTD/svg11.dtd">
<svg version="1.1" id="Capa_1" xmlns="http://www.w3.org/2000/svg" xmlns:xlink="http://www.w3.org/1999/xlink" x="0px" y="0px"
	 width="213px" height="55px" viewBox="0 0 213 55" enable-background="new 0 0 213 55" xml:space="preserve">
<g>
	<path fill="#62A56B" d="M9.076,27.271v9.786H2.328V9.158h10.931c3.315,0,5.84,0.823,7.577,2.466
		c1.736,1.645,2.604,3.861,2.604,6.649c0,1.736-0.388,3.282-1.164,4.637s-1.927,2.42-3.453,3.196
		c-1.526,0.776-3.381,1.164-5.564,1.164H9.076z M16.574,18.273c0-2.447-1.355-3.67-4.064-3.67H9.076v7.261h3.433
		C15.218,21.864,16.574,20.667,16.574,18.273z"/>
	<path fill="#62A56B" d="M85.353,17.307c1.552,1.671,2.328,3.992,2.328,6.965v12.785h-6.708V25.061c0-1.394-0.375-2.479-1.125-3.255
		c-0.75-0.776-1.77-1.164-3.058-1.164c-1.342,0-2.401,0.414-3.177,1.243c-0.776,0.829-1.164,1.993-1.164,3.493v11.68h-6.748V25.061
		c0-1.394-0.369-2.479-1.105-3.255c-0.737-0.776-1.75-1.164-3.039-1.164c-1.342,0-2.407,0.408-3.196,1.223
		c-0.789,0.816-1.184,1.987-1.184,3.512v11.68H50.43V15.038h6.748v3.749c0.578-1.236,1.466-2.209,2.664-2.92
		c1.197-0.71,2.598-1.065,4.202-1.065c1.684,0,3.17,0.389,4.459,1.164c1.289,0.776,2.262,1.888,2.92,3.334
		c0.763-1.368,1.809-2.459,3.137-3.275c1.328-0.815,2.795-1.223,4.4-1.223C81.669,14.801,83.8,15.636,85.353,17.307z"/>
	<path fill="#62A56B" d="M112.896,27.271H97.625c0.079,1.657,0.499,2.848,1.263,3.571c0.763,0.724,1.736,1.085,2.92,1.085
		c1,0,1.828-0.25,2.486-0.75c0.658-0.499,1.092-1.144,1.302-1.933h7.143c-0.29,1.552-0.921,2.939-1.894,4.163
		c-0.974,1.223-2.21,2.184-3.709,2.88c-1.5,0.697-3.17,1.046-5.011,1.046c-2.158,0-4.071-0.454-5.742-1.361
		c-1.671-0.908-2.979-2.216-3.926-3.927c-0.947-1.709-1.421-3.709-1.421-5.998c0-2.314,0.467-4.321,1.401-6.018
		c0.934-1.697,2.243-2.999,3.927-3.907c1.683-0.907,3.604-1.361,5.761-1.361c2.183,0,4.104,0.448,5.761,1.342
		c1.657,0.895,2.939,2.15,3.847,3.769c0.908,1.618,1.361,3.479,1.361,5.583C113.093,26.008,113.027,26.613,112.896,27.271z
		 M105.103,21.174c-0.803-0.723-1.795-1.085-2.979-1.085c-1.237,0-2.263,0.369-3.078,1.105c-0.816,0.737-1.276,1.815-1.381,3.236
		h8.603C106.292,22.983,105.905,21.897,105.103,21.174z"/>
</g>
<g>
	<path fill="#333333" d="M138.171,11.684c2.328,1.868,3.834,4.394,4.518,7.576h-7.142c-0.527-1.289-1.336-2.302-2.427-3.039
		c-1.092-0.736-2.387-1.104-3.887-1.104c-1.973,0-3.565,0.724-4.775,2.17c-1.21,1.447-1.815,3.381-1.815,5.801
		c0,2.421,0.605,4.348,1.815,5.781c1.21,1.434,2.802,2.15,4.775,2.15c1.5,0,2.795-0.368,3.887-1.105
		c1.091-0.736,1.9-1.736,2.427-2.999h7.142c-0.684,3.157-2.19,5.676-4.518,7.557s-5.268,2.821-8.819,2.821
		c-2.71,0-5.091-0.598-7.143-1.795c-2.052-1.197-3.637-2.874-4.755-5.031c-1.119-2.157-1.677-4.617-1.677-7.379
		s0.559-5.222,1.677-7.379c1.118-2.157,2.703-3.834,4.755-5.031c2.052-1.197,4.433-1.795,7.143-1.795
		C132.903,8.882,135.843,9.816,138.171,11.684z"/>
	<path fill="#333333" d="M156.48,15.985c1.328-0.79,2.769-1.184,4.321-1.184v7.221h-1.934c-1.789,0-3.176,0.382-4.163,1.145
		c-0.986,0.763-1.479,2.052-1.479,3.867v10.023h-6.748V15.038h6.748v4.144C154.066,17.839,155.152,16.774,156.48,15.985z"/>
	<path fill="#333333" d="M184.359,27.271h-15.271c0.079,1.657,0.499,2.848,1.263,3.571c0.763,0.724,1.736,1.085,2.92,1.085
		c1,0,1.828-0.25,2.486-0.75c0.658-0.499,1.092-1.144,1.302-1.933h7.143c-0.29,1.552-0.921,2.939-1.894,4.163
		c-0.974,1.223-2.21,2.184-3.709,2.88c-1.5,0.697-3.17,1.046-5.011,1.046c-2.158,0-4.071-0.454-5.742-1.361
		c-1.671-0.908-2.979-2.216-3.926-3.927c-0.947-1.709-1.421-3.709-1.421-5.998c0-2.314,0.467-4.321,1.401-6.018
		c0.934-1.697,2.243-2.999,3.927-3.907c1.683-0.907,3.604-1.361,5.761-1.361c2.183,0,4.104,0.448,5.761,1.342
		c1.657,0.895,2.939,2.15,3.847,3.769c0.908,1.618,1.361,3.479,1.361,5.583C184.557,26.008,184.491,26.613,184.359,27.271z
		 M176.566,21.174c-0.803-0.723-1.795-1.085-2.979-1.085c-1.237,0-2.263,0.369-3.078,1.105c-0.816,0.737-1.276,1.815-1.381,3.236
		h8.603C177.756,22.983,177.368,21.897,176.566,21.174z"/>
	<path fill="#333333" d="M200.775,15.906c1.209,0.763,2.091,1.802,2.644,3.117V7.856h6.748v29.201h-6.748v-3.985
		c-0.552,1.315-1.434,2.354-2.644,3.117c-1.21,0.763-2.658,1.145-4.341,1.145c-1.815,0-3.44-0.454-4.874-1.361
		c-1.434-0.908-2.565-2.216-3.394-3.927c-0.829-1.709-1.243-3.709-1.243-5.998c0-2.314,0.415-4.321,1.243-6.018
		s1.959-2.999,3.394-3.907c1.434-0.907,3.058-1.361,4.874-1.361C198.117,14.761,199.564,15.143,200.775,15.906z M195.112,22.101
		c-0.882,0.947-1.322,2.263-1.322,3.946c0,1.684,0.44,2.999,1.322,3.946c0.881,0.947,2.045,1.42,3.492,1.42
		c1.42,0,2.584-0.486,3.492-1.46c0.908-0.973,1.361-2.275,1.361-3.907c0-1.657-0.454-2.965-1.361-3.926
		c-0.908-0.96-2.072-1.44-3.492-1.44C197.157,20.681,195.993,21.154,195.112,22.101z"/>
</g>
<g>
	<path fill="#666566" d="M53.458,49.611v0.624h-3.183v-5.493h3.083v0.624h-2.55v1.773h1.984v0.624h-1.984v1.848H53.458z"/>
	<path fill="#666566" d="M58.771,49.611v0.624h-3.049v-5.493h0.533v4.869H58.771z"/>
	<path fill="#666566" d="M67.054,49.923c-0.315,0.264-0.679,0.395-1.092,0.395c-0.413,0-0.772-0.115-1.079-0.345
		c-0.306-0.23-0.542-0.558-0.709-0.982c-0.167-0.425-0.25-0.925-0.25-1.502c0-0.571,0.083-1.071,0.25-1.498s0.403-0.756,0.709-0.986
		c0.306-0.23,0.662-0.346,1.065-0.346c0.421,0,0.776,0.108,1.062,0.325s0.5,0.536,0.643,0.957l-0.526,0.308
		c-0.098-0.322-0.24-0.563-0.426-0.724c-0.187-0.161-0.424-0.241-0.712-0.241c-0.302,0-0.566,0.087-0.792,0.262
		s-0.402,0.428-0.526,0.761c-0.125,0.333-0.187,0.727-0.187,1.182c0,0.688,0.132,1.228,0.396,1.619s0.625,0.587,1.082,0.587
		c0.297,0,0.555-0.094,0.772-0.283c0.217-0.188,0.373-0.466,0.466-0.832l0.533,0.25C67.596,49.295,67.369,49.66,67.054,49.923z"/>
	<path fill="#666566" d="M71.542,47.955H70.49v2.281h-0.533v-5.493h1.665c0.448,0,0.808,0.144,1.079,0.433
		c0.271,0.289,0.406,0.68,0.406,1.174c0,0.388-0.086,0.716-0.26,0.982c-0.173,0.266-0.411,0.449-0.712,0.549l1.238,2.355h-0.632
		L71.542,47.955z M70.49,47.331h1.125c0.622,0,0.932-0.327,0.932-0.982s-0.311-0.982-0.932-0.982H70.49V47.331z"/>
	<path fill="#666566" d="M78.767,49.611v0.624h-3.183v-5.493h3.083v0.624h-2.55v1.773h1.984v0.624h-1.984v1.848H78.767z
		 M77.275,44.051h-0.433l0.379-1.232h0.626L77.275,44.051z"/>
	<path fill="#666566" d="M84.073,45.458c0.391,0.477,0.586,1.154,0.586,2.031s-0.195,1.554-0.586,2.031
		c-0.391,0.478-0.932,0.716-1.625,0.716H81.03v-5.493h1.418C83.141,44.742,83.683,44.98,84.073,45.458z M83.677,49.049
		c0.282-0.375,0.423-0.895,0.423-1.561s-0.141-1.186-0.423-1.561c-0.282-0.375-0.673-0.562-1.175-0.562h-0.939v4.245h0.939
		C83.003,49.611,83.395,49.424,83.677,49.049z"/>
	<path fill="#666566" d="M87.563,50.235H87.03v-5.493h0.533V50.235z"/>
	<path fill="#666566" d="M93.289,45.366h-1.531v4.869h-0.533v-4.869h-1.532v-0.624h3.596V45.366z"/>
	<path fill="#666566" d="M98.123,45.004c0.307,0.23,0.543,0.558,0.709,0.982s0.25,0.925,0.25,1.502s-0.083,1.078-0.25,1.502
		c-0.167,0.424-0.403,0.752-0.709,0.982c-0.306,0.23-0.666,0.345-1.079,0.345c-0.413,0-0.772-0.115-1.079-0.345
		c-0.306-0.23-0.542-0.558-0.709-0.982c-0.167-0.425-0.25-0.925-0.25-1.502s0.083-1.078,0.25-1.502s0.403-0.752,0.709-0.982
		c0.306-0.23,0.666-0.346,1.079-0.346C97.457,44.659,97.816,44.774,98.123,45.004z M95.962,45.87
		c-0.264,0.392-0.396,0.931-0.396,1.619s0.132,1.228,0.396,1.619s0.625,0.587,1.082,0.587s0.818-0.196,1.082-0.587
		s0.396-0.931,0.396-1.619s-0.132-1.228-0.396-1.619c-0.264-0.391-0.625-0.586-1.082-0.586S96.226,45.479,95.962,45.87z"/>
	<path fill="#666566" d="M105.454,50.235h-0.533v-5.493h0.533V50.235z"/>
	<path fill="#666566" d="M111.133,45.458c0.391,0.477,0.586,1.154,0.586,2.031s-0.195,1.554-0.586,2.031
		c-0.391,0.478-0.932,0.716-1.625,0.716h-1.418v-5.493h1.418C110.201,44.742,110.743,44.98,111.133,45.458z M110.737,49.049
		c0.282-0.375,0.423-0.895,0.423-1.561s-0.141-1.186-0.423-1.561c-0.282-0.375-0.673-0.562-1.175-0.562h-0.939v4.245h0.939
		C110.063,49.611,110.455,49.424,110.737,49.049z"/>
	<path fill="#666566" d="M117.266,49.611v0.624h-3.183v-5.493h3.083v0.624h-2.55v1.773h1.984v0.624h-1.984v1.848H117.266z"/>
	<path fill="#666566" d="M122,48.712h-1.991l-0.466,1.523h-0.559l1.711-5.493h0.633l1.705,5.493h-0.566L122,48.712z M121.807,48.088
		l-0.593-1.948l-0.207-0.766h-0.013l-0.193,0.741l-0.599,1.973H121.807z"/>
	<path fill="#666566" d="M128.172,49.611v0.624h-3.049v-5.493h0.533v4.869H128.172z"/>
	<path fill="#666566" d="M136.216,45.196c0.271,0.302,0.406,0.709,0.406,1.219c0,0.511-0.136,0.917-0.406,1.219
		c-0.271,0.303-0.628,0.454-1.072,0.454h-1.019v2.147h-0.533v-5.493h1.551C135.588,44.742,135.945,44.893,136.216,45.196z
		 M135.82,47.202c0.162-0.175,0.243-0.437,0.243-0.787s-0.081-0.612-0.243-0.787s-0.414-0.262-0.755-0.262h-0.939v2.098h0.939
		C135.406,47.464,135.658,47.376,135.82,47.202z"/>
	<path fill="#666566" d="M141.003,48.712h-1.991l-0.466,1.523h-0.559l1.711-5.493h0.633l1.705,5.493h-0.566L141.003,48.712z
		 M140.811,48.088l-0.593-1.948l-0.207-0.766h-0.013l-0.193,0.741l-0.599,1.973H140.811z"/>
	<path fill="#666566" d="M145.711,47.955h-1.052v2.281h-0.533v-5.493h1.665c0.448,0,0.808,0.144,1.079,0.433
		c0.271,0.289,0.406,0.68,0.406,1.174c0,0.388-0.086,0.716-0.26,0.982c-0.173,0.266-0.411,0.449-0.712,0.549l1.238,2.355h-0.632
		L145.711,47.955z M144.659,47.331h1.125c0.622,0,0.932-0.327,0.932-0.982s-0.311-0.982-0.932-0.982h-1.125V47.331z"/>
	<path fill="#666566" d="M152.216,48.712h-1.991l-0.466,1.523H149.2l1.711-5.493h0.633l1.705,5.493h-0.566L152.216,48.712z
		 M152.023,48.088l-0.593-1.948l-0.207-0.766h-0.013l-0.193,0.741l-0.599,1.973H152.023z"/>
	<path fill="#666566" d="M161.445,45.366h-1.531v4.869h-0.533v-4.869h-1.532v-0.624h3.596V45.366z"/>
	<path fill="#666566" d="M166.978,48.188c0,0.705-0.147,1.236-0.443,1.594c-0.295,0.358-0.722,0.537-1.282,0.537
		c-0.559,0-0.986-0.18-1.282-0.541c-0.295-0.36-0.443-0.89-0.443-1.589v-3.446h0.533v3.279c0,0.577,0.097,1,0.29,1.269
		c0.193,0.27,0.494,0.404,0.902,0.404c0.409,0,0.709-0.134,0.902-0.404c0.193-0.269,0.29-0.692,0.29-1.269v-3.279h0.533V48.188z"/>
	<path fill="#666566" d="M176.487,50.235h-0.659l-1.838-3.679l-0.466-1.082h-0.006l0.026,0.882v3.878h-0.506v-5.493h0.659
		l1.831,3.662L176,49.503h0.007l-0.027-0.882v-3.878h0.506V50.235z"/>
	<path fill="#666566" d="M182.306,49.611v0.624h-3.183v-5.493h3.083v0.624h-2.55v1.773h1.984v0.624h-1.984v1.848H182.306z"/>
	<path fill="#666566" d="M188.046,47.464v2.771h-0.399l-0.02-0.741c-0.129,0.266-0.31,0.47-0.543,0.612
		c-0.233,0.142-0.514,0.212-0.842,0.212c-0.413,0-0.772-0.115-1.079-0.345c-0.306-0.23-0.542-0.558-0.709-0.982
		c-0.167-0.425-0.25-0.925-0.25-1.502c0-0.571,0.085-1.071,0.256-1.498s0.411-0.756,0.719-0.986c0.309-0.23,0.667-0.346,1.075-0.346
		c0.435,0,0.793,0.103,1.076,0.308c0.282,0.205,0.509,0.521,0.683,0.949l-0.486,0.333c-0.098-0.311-0.256-0.549-0.476-0.716
		s-0.485-0.25-0.796-0.25c-0.297,0-0.558,0.089-0.782,0.266c-0.224,0.178-0.398,0.432-0.522,0.762
		c-0.125,0.33-0.187,0.723-0.187,1.178c0,0.699,0.128,1.242,0.386,1.627c0.257,0.386,0.628,0.579,1.112,0.579
		c0.382,0,0.693-0.122,0.936-0.366c0.242-0.244,0.363-0.594,0.363-1.049v-0.191h-1.398v-0.624H188.046z"/>
	<path fill="#666566" d="M193.339,45.004c0.307,0.23,0.543,0.558,0.709,0.982s0.25,0.925,0.25,1.502s-0.083,1.078-0.25,1.502
		c-0.167,0.424-0.403,0.752-0.709,0.982c-0.306,0.23-0.666,0.345-1.079,0.345c-0.413,0-0.772-0.115-1.079-0.345
		c-0.306-0.23-0.542-0.558-0.709-0.982c-0.167-0.425-0.25-0.925-0.25-1.502s0.083-1.078,0.25-1.502s0.403-0.752,0.709-0.982
		c0.306-0.23,0.666-0.346,1.079-0.346C192.673,44.659,193.033,44.774,193.339,45.004z M191.178,45.87
		c-0.264,0.392-0.396,0.931-0.396,1.619s0.132,1.228,0.396,1.619s0.625,0.587,1.082,0.587s0.818-0.196,1.082-0.587
		s0.396-0.931,0.396-1.619s-0.132-1.228-0.396-1.619c-0.264-0.391-0.625-0.586-1.082-0.586S191.442,45.479,191.178,45.87z"/>
	<path fill="#666566" d="M199.532,49.923c-0.315,0.264-0.679,0.395-1.092,0.395c-0.413,0-0.772-0.115-1.079-0.345
		c-0.306-0.23-0.542-0.558-0.709-0.982c-0.167-0.425-0.25-0.925-0.25-1.502c0-0.571,0.083-1.071,0.25-1.498s0.403-0.756,0.709-0.986
		c0.306-0.23,0.662-0.346,1.065-0.346c0.421,0,0.776,0.108,1.062,0.325s0.5,0.536,0.643,0.957l-0.526,0.308
		c-0.098-0.322-0.24-0.563-0.426-0.724c-0.187-0.161-0.424-0.241-0.712-0.241c-0.302,0-0.566,0.087-0.792,0.262
		s-0.402,0.428-0.526,0.761c-0.125,0.333-0.187,0.727-0.187,1.182c0,0.688,0.132,1.228,0.396,1.619s0.625,0.587,1.082,0.587
		c0.297,0,0.555-0.094,0.772-0.283c0.217-0.188,0.373-0.466,0.466-0.832l0.533,0.25C200.073,49.295,199.847,49.66,199.532,49.923z"
		/>
	<path fill="#666566" d="M202.967,50.235h-0.533v-5.493h0.533V50.235z"/>
	<path fill="#666566" d="M208.454,45.004c0.307,0.23,0.543,0.558,0.709,0.982s0.25,0.925,0.25,1.502s-0.083,1.078-0.25,1.502
		c-0.167,0.424-0.403,0.752-0.709,0.982c-0.306,0.23-0.666,0.345-1.079,0.345c-0.413,0-0.772-0.115-1.079-0.345
		c-0.306-0.23-0.542-0.558-0.709-0.982c-0.167-0.425-0.25-0.925-0.25-1.502s0.083-1.078,0.25-1.502s0.403-0.752,0.709-0.982
		c0.306-0.23,0.666-0.346,1.079-0.346C207.788,44.659,208.147,44.774,208.454,45.004z M206.293,45.87
		c-0.264,0.392-0.396,0.931-0.396,1.619s0.132,1.228,0.396,1.619s0.625,0.587,1.082,0.587s0.818-0.196,1.082-0.587
		s0.396-0.931,0.396-1.619s-0.132-1.228-0.396-1.619c-0.264-0.391-0.625-0.586-1.082-0.586S206.557,45.479,206.293,45.87z"/>
</g>
<polygon fill="#62A56B" points="33.717,36.228 24.484,15.038 32.02,15.038 37.326,28.568 45.813,5.684 52.749,5.684 34.528,50.896 
	27.251,50.896 33.715,36.227 "/>
<polygon fill="#62A56B" points="51.333,0 42.665,6.003 53.893,10.229 "/>
<g>
</g>
<g>
</g>
<g>
</g>
<g>
</g>
<g>
</g>
<g>
</g>
</svg>
